<svg width="431" height="370" viewBox="0 0 431 370" fill="none" xmlns="http://www.w3.org/2000/svg">
<path d="M268.75 110.141L262.184 200.192C261.881 204.345 265.003 207.957 269.156 208.26L415.727 218.947C419.88 219.249 423.492 216.128 423.795 211.975L430.361 121.924C430.663 117.771 427.542 114.158 423.389 113.855L276.818 103.169C272.665 102.866 269.052 105.988 268.75 110.141Z" fill="#36AAC4"/>
<path d="M278.73 170.879L278.07 179.879L277.15 179.809L277.74 171.659L275.63 171.509L275.69 170.689L278.73 170.879Z" fill="white"/>
<path d="M287.36 179.7L287.3 180.52L281.01 180.06V179.41L285.01 176.03C286.09 175.11 286.33 174.52 286.37 173.9C286.45 172.9 285.77 172.17 284.37 172.07C283.916 172.009 283.453 172.051 283.017 172.193C282.581 172.335 282.182 172.573 281.85 172.89L281.23 172.28C281.668 171.882 282.188 171.586 282.753 171.413C283.318 171.24 283.915 171.195 284.5 171.28C286.32 171.41 287.41 172.42 287.3 173.92C287.24 174.78 286.91 175.53 285.62 176.62L282.35 179.39L287.36 179.7Z" fill="white"/>
<path d="M296.91 178.85L295.12 178.72L294.95 181.08L294 181L294.17 178.65L289.11 178.28L289.16 177.61L294.34 172.01L295.34 172.09L290.34 177.54L294.23 177.83L294.38 175.75L295.28 175.82L295.13 177.89L297 178L296.91 178.85Z" fill="white"/>
<path d="M310.66 179.85L308.87 179.72L308.7 182.08L307.77 182.01L307.95 179.66L302.88 179.29L302.93 178.62L308.12 173.02L309.12 173.1L304.12 178.56L308.01 178.84L308.16 176.76L309.06 176.83L308.91 178.9L310.7 179.03L310.66 179.85Z" fill="white"/>
<path d="M318.53 180.14C318.41 181.67 317.26 182.78 315.07 182.62C313.889 182.575 312.769 182.082 311.94 181.24L312.44 180.54C313.139 181.285 314.1 181.73 315.12 181.78C316.65 181.89 317.51 181.2 317.59 180.11C317.67 179.02 317.01 178.19 314.73 178.02L312.82 177.89L313.6 173.42L318.51 173.78L318.45 174.6L314.35 174.3L313.84 177.14L314.99 177.22C317.69 177.42 318.64 178.56 318.53 180.14Z" fill="white"/>
<path d="M327.4 180.75C327.367 181.137 327.254 181.513 327.068 181.854C326.882 182.196 326.627 182.494 326.32 182.732C326.013 182.97 325.659 183.141 325.283 183.236C324.906 183.33 324.513 183.345 324.13 183.28C321.75 183.11 320.57 181.36 320.78 178.53C321 175.53 322.78 174.01 325.22 174.19C325.961 174.215 326.682 174.436 327.31 174.83L326.89 175.55C326.382 175.205 325.784 175.015 325.17 175C323.24 174.86 321.9 176 321.73 178.45C321.73 178.65 321.73 178.91 321.73 179.18C322.024 178.702 322.451 178.319 322.959 178.081C323.468 177.843 324.035 177.759 324.59 177.84C324.971 177.828 325.35 177.896 325.703 178.039C326.056 178.183 326.375 178.398 326.64 178.672C326.905 178.946 327.109 179.273 327.24 179.631C327.371 179.989 327.426 180.37 327.4 180.75ZM326.48 180.75C326.57 179.57 325.75 178.75 324.37 178.65C324.091 178.597 323.804 178.603 323.526 178.665C323.249 178.728 322.987 178.847 322.758 179.015C322.528 179.182 322.335 179.395 322.191 179.641C322.047 179.886 321.955 180.158 321.92 180.44C321.85 181.44 322.6 182.44 324.15 182.54C324.425 182.587 324.707 182.576 324.978 182.507C325.248 182.438 325.501 182.314 325.721 182.141C325.94 181.969 326.121 181.752 326.252 181.506C326.383 181.26 326.46 180.988 326.48 180.71V180.75Z" fill="white"/>
<path d="M339.66 181.75C339.55 183.25 338.38 184.32 336.22 184.16C335.033 184.118 333.907 183.624 333.07 182.78L333.57 182.08C334.28 182.827 335.251 183.271 336.28 183.32C337.76 183.43 338.63 182.79 338.71 181.68C338.79 180.57 338.09 179.84 336.42 179.68H335.78L335.83 179L338.54 176.06L333.96 175.73L334.02 174.91L339.78 175.33V175.98L337 179C338.88 179.23 339.77 180.31 339.66 181.75Z" fill="white"/>
<path d="M348.67 182.3C348.637 182.687 348.524 183.063 348.338 183.405C348.152 183.746 347.897 184.045 347.59 184.282C347.283 184.52 346.93 184.692 346.553 184.786C346.176 184.88 345.783 184.895 345.4 184.83C343.02 184.66 341.85 182.91 342.05 180.08C342.27 177.03 344.05 175.56 346.49 175.74C347.232 175.761 347.954 175.982 348.58 176.38L348.16 177.1C347.652 176.756 347.055 176.565 346.44 176.55C344.51 176.41 343.18 177.55 343 179.99C343 180.2 343 180.46 343 180.73C343.294 180.252 343.721 179.87 344.229 179.632C344.738 179.393 345.305 179.31 345.86 179.39C346.241 179.378 346.62 179.446 346.973 179.59C347.326 179.733 347.645 179.949 347.91 180.223C348.175 180.497 348.379 180.823 348.51 181.181C348.641 181.539 348.696 181.92 348.67 182.3ZM347.75 182.3C347.84 181.12 347.02 180.3 345.64 180.2C345.361 180.148 345.074 180.153 344.796 180.215C344.519 180.278 344.257 180.397 344.028 180.565C343.798 180.733 343.605 180.946 343.461 181.191C343.317 181.436 343.225 181.708 343.19 181.99C343.12 182.99 343.87 183.99 345.42 184.09C345.695 184.137 345.977 184.126 346.248 184.057C346.518 183.988 346.771 183.864 346.991 183.691C347.21 183.519 347.391 183.303 347.522 183.056C347.653 182.81 347.731 182.539 347.75 182.26V182.3Z" fill="white"/>
<path d="M357.38 176.61V177.26L353 185.31L352 185.23L356.28 177.35L351.67 177.02L351.55 178.7L350.64 178.63L350.82 176.13L357.38 176.61Z" fill="white"/>
<path d="M370.2 177.55L370.15 178.2L365.79 186.2L364.79 186.13L369.08 178.25L364.47 177.91L364.34 179.59L363.43 179.52L363.62 177.02L370.2 177.55Z" fill="white"/>
<path d="M378.56 184.66C378.44 186.25 377.03 187.14 374.89 186.98C372.75 186.82 371.5 185.74 371.61 184.15C371.642 183.64 371.847 183.157 372.191 182.779C372.534 182.401 372.996 182.151 373.5 182.07C373.093 181.911 372.749 181.622 372.521 181.248C372.293 180.874 372.195 180.436 372.24 180C372.34 178.54 373.65 177.72 375.55 177.86C377.45 178 378.65 179 378.55 180.46C378.531 180.903 378.366 181.327 378.08 181.665C377.794 182.004 377.404 182.238 376.97 182.33C377.46 182.481 377.884 182.793 378.173 183.217C378.462 183.64 378.599 184.149 378.56 184.66ZM377.61 184.58C377.69 183.47 376.79 182.71 375.2 182.58C373.61 182.45 372.63 183.09 372.55 184.19C372.47 185.29 373.35 186.06 374.94 186.19C376.53 186.32 377.53 185.69 377.61 184.58ZM375.26 181.87C376.65 181.97 377.53 181.4 377.61 180.43C377.69 179.46 376.84 178.74 375.49 178.64C374.14 178.54 373.23 179.09 373.16 180.09C373.09 181.09 373.86 181.77 375.26 181.87Z" fill="white"/>
<path d="M387.42 183.23C387.2 186.23 385.42 187.75 382.98 187.57C382.239 187.544 381.518 187.323 380.89 186.93L381.32 186.21C381.825 186.555 382.419 186.746 383.03 186.76C384.96 186.9 386.3 185.76 386.48 183.32C386.48 183.11 386.48 182.85 386.48 182.58C386.188 183.058 385.762 183.439 385.256 183.678C384.749 183.916 384.184 184 383.63 183.92C383.247 183.937 382.865 183.872 382.509 183.73C382.152 183.589 381.83 183.374 381.563 183.099C381.296 182.824 381.09 182.496 380.958 182.136C380.827 181.776 380.773 181.392 380.8 181.01C380.832 180.623 380.944 180.248 381.129 179.906C381.313 179.565 381.567 179.266 381.874 179.028C382.18 178.791 382.533 178.619 382.909 178.525C383.285 178.43 383.677 178.415 384.06 178.48C386.45 178.65 387.63 180.4 387.42 183.23ZM386.28 181.36C386.36 180.36 385.6 179.36 384.05 179.26C383.778 179.213 383.499 179.224 383.231 179.29C382.963 179.356 382.712 179.477 382.493 179.645C382.274 179.813 382.093 180.025 381.96 180.267C381.826 180.509 381.745 180.775 381.72 181.05C381.63 182.23 382.45 183.05 383.83 183.15C384.109 183.203 384.397 183.198 384.674 183.135C384.951 183.072 385.213 182.953 385.442 182.786C385.672 182.618 385.865 182.405 386.009 182.16C386.153 181.914 386.245 181.642 386.28 181.36Z" fill="white"/>
<path d="M396.84 179.48L396.19 188.48L395.26 188.41L395.86 180.26L393.74 180.1L393.8 179.28L396.84 179.48Z" fill="white"/>
<path d="M405.47 188.31L405.41 189.13L399.12 188.67V188.01L403.12 184.63C404.21 183.71 404.44 183.12 404.49 182.51C404.57 181.51 403.88 180.77 402.49 180.67C402.036 180.612 401.574 180.656 401.138 180.797C400.702 180.939 400.303 181.176 399.97 181.49L399.36 180.88C399.793 180.473 400.311 180.168 400.877 179.986C401.442 179.805 402.041 179.751 402.63 179.83C404.45 179.97 405.53 180.97 405.43 182.47C405.366 183.016 405.183 183.542 404.892 184.008C404.602 184.475 404.212 184.872 403.75 185.17L400.54 188L405.47 188.31Z" fill="white"/>
<path d="M413.65 187.14C413.54 188.64 412.36 189.71 410.2 189.55C409.01 189.508 407.883 189.01 407.05 188.16L407.56 187.47C408.267 188.214 409.234 188.658 410.26 188.71C411.75 188.81 412.62 188.18 412.7 187.07C412.78 185.96 412.07 185.23 410.41 185.07L409.77 185.02L409.82 184.35L412.53 181.41L407.94 181.08L408 180.26L413.77 180.68V181.33L411 184.33C412.86 184.62 413.75 185.7 413.65 187.14Z" fill="white"/>
<path d="M344.005 191.328L343.722 195.228L415.582 200.454L415.865 196.554L344.005 191.328Z" fill="white"/>
<path d="M378.444 201.652L378.16 205.552L415.013 208.232L415.296 204.332L378.444 201.652Z" fill="white"/>
<g opacity="0.5">
<path d="M300.595 142.089L280.339 140.612C277.607 140.412 275.231 142.466 275.031 145.198L274.111 157.824C273.912 160.556 275.965 162.933 278.697 163.132L298.953 164.609C301.685 164.808 304.062 162.755 304.261 160.023L305.181 147.396C305.381 144.664 303.327 142.288 300.595 142.089Z" fill="black"/>
</g>
<path d="M274.22 156.52L274.33 155.08L289.86 156.21C290.707 156.245 291.534 155.949 292.166 155.385C292.799 154.821 293.187 154.033 293.248 153.188C293.309 152.343 293.038 151.507 292.494 150.858C291.949 150.208 291.173 149.797 290.33 149.71L274.8 148.58L274.91 147.13L290.43 148.26C291.062 148.284 291.682 148.435 292.254 148.704C292.826 148.973 293.338 149.354 293.759 149.825C294.18 150.296 294.503 150.847 294.707 151.445C294.911 152.043 294.993 152.676 294.947 153.307C294.901 153.937 294.729 154.552 294.441 155.114C294.153 155.676 293.755 156.175 293.27 156.58C292.785 156.986 292.223 157.289 291.619 157.473C291.014 157.657 290.379 157.717 289.75 157.65L274.22 156.52Z" fill="#36AAC4"/>
<path d="M294.12 152.515L294.014 153.961L304.665 154.747L304.771 153.301L294.12 152.515Z" fill="#36AAC4"/>
<path d="M357.863 127.623L280.319 121.97L279.834 128.622L357.378 134.276L357.863 127.623Z" fill="white"/>
<path d="M267.76 350.31L156.24 349.8C153.05 349.786 149.894 349.143 146.953 347.909C144.011 346.675 141.342 344.874 139.096 342.608C136.851 340.343 135.074 337.657 133.867 334.704C132.659 331.752 132.045 328.59 132.06 325.4L133.24 45.8104C133.254 42.6192 133.897 39.4622 135.132 36.5195C136.366 33.5768 138.168 30.9061 140.435 28.6598C142.702 26.4136 145.388 24.6358 148.342 23.4279C151.296 22.2201 154.459 21.6059 157.65 21.6204L269.17 22.1404C275.61 22.1695 281.775 24.7552 286.31 29.3289C290.844 33.9027 293.376 40.09 293.35 46.5304L292.17 326.12C292.157 329.312 291.515 332.47 290.281 335.413C289.047 338.356 287.245 341.027 284.978 343.274C282.711 345.52 280.023 347.298 277.069 348.505C274.115 349.713 270.951 350.326 267.76 350.31Z" fill="#263238"/>
<path d="M269 31.79L247.38 31.69C246.675 31.7018 245.979 31.8523 245.332 32.1331C244.685 32.4138 244.099 32.8193 243.609 33.3263C243.119 33.8333 242.733 34.432 242.474 35.0881C242.215 35.7442 242.088 36.4448 242.1 37.15V41.07C242.124 42.4953 241.582 43.8718 240.592 44.8974C239.602 45.9229 238.245 46.5137 236.82 46.54L194.68 46.34C193.257 46.3008 191.907 45.6987 190.926 44.6659C189.946 43.633 189.415 42.2536 189.45 40.83V36.91C189.485 35.4855 188.954 34.105 187.974 33.0706C186.994 32.0361 185.644 31.4319 184.22 31.39H176.61L157.69 31.3C155.455 31.2882 153.24 31.7172 151.171 32.5624C149.102 33.4077 147.22 34.6527 145.632 36.2261C144.045 37.7995 142.783 39.6705 141.92 41.732C141.056 43.7935 140.608 46.005 140.6 48.24L139.44 321.14C139.432 323.374 139.865 325.588 140.713 327.655C141.561 329.722 142.809 331.601 144.384 333.186C145.959 334.77 147.831 336.028 149.893 336.889C151.955 337.749 154.166 338.195 156.4 338.2L267.7 338.71C269.935 338.722 272.15 338.293 274.219 337.448C276.288 336.602 278.171 335.357 279.758 333.784C281.345 332.211 282.607 330.34 283.47 328.278C284.334 326.217 284.782 324.005 284.79 321.77L286 48.87C286.011 46.6308 285.579 44.4116 284.729 42.3399C283.879 40.2681 282.629 38.3846 281.049 36.7975C279.47 35.2104 277.592 33.951 275.524 33.0917C273.456 32.2324 271.239 31.79 269 31.79Z" fill="#FAFAFA"/>
<path d="M206 312.591C206.065 313.059 205.985 313.536 205.772 313.958C205.558 314.38 205.221 314.727 204.805 314.952C204.389 315.177 203.914 315.269 203.445 315.217C202.975 315.164 202.532 314.969 202.176 314.658C201.82 314.347 201.567 313.935 201.452 313.476C201.337 313.017 201.364 312.535 201.531 312.092C201.698 311.65 201.996 311.269 202.385 311C202.775 310.732 203.237 310.589 203.71 310.591C204.279 310.552 204.839 310.742 205.269 311.117C205.698 311.492 205.961 312.022 206 312.591Z" fill="#455A64"/>
<path d="M213.14 312.62C213.207 313.091 213.129 313.571 212.915 313.996C212.702 314.421 212.363 314.771 211.945 314.998C211.527 315.225 211.05 315.318 210.577 315.266C210.104 315.214 209.659 315.018 209.301 314.705C208.942 314.392 208.689 313.977 208.573 313.516C208.458 313.054 208.486 312.569 208.655 312.124C208.824 311.679 209.124 311.297 209.517 311.028C209.909 310.759 210.374 310.617 210.85 310.62C211.419 310.582 211.98 310.771 212.409 311.146C212.839 311.521 213.101 312.051 213.14 312.62Z" fill="#36AAC4"/>
<path d="M220.25 312.65C220.315 313.118 220.235 313.596 220.022 314.017C219.808 314.439 219.471 314.786 219.055 315.011C218.639 315.236 218.164 315.328 217.695 315.276C217.225 315.223 216.782 315.029 216.426 314.717C216.07 314.406 215.817 313.994 215.702 313.535C215.587 313.077 215.614 312.594 215.781 312.151C215.948 311.709 216.246 311.328 216.635 311.06C217.025 310.791 217.487 310.648 217.96 310.65C218.242 310.63 218.525 310.665 218.793 310.755C219.061 310.845 219.309 310.987 219.522 311.173C219.735 311.359 219.908 311.585 220.033 311.839C220.158 312.092 220.232 312.368 220.25 312.65Z" fill="#455A64"/>
<path d="M258.22 85.1699H167.11C162.272 85.1699 158.35 89.0919 158.35 93.9299V188.49C158.35 193.328 162.272 197.25 167.11 197.25H258.22C263.058 197.25 266.98 193.328 266.98 188.49V93.9299C266.98 89.0919 263.058 85.1699 258.22 85.1699Z" fill="#455A64"/>
<path d="M258.22 197.75H167.1C164.645 197.747 162.293 196.77 160.558 195.034C158.824 193.298 157.85 190.944 157.85 188.49V93.9299C157.85 91.4757 158.824 89.122 160.558 87.3857C162.293 85.6494 164.645 84.6726 167.1 84.6699H258.22C260.675 84.6726 263.028 85.649 264.764 87.385C266.501 89.1211 267.477 91.4748 267.48 93.9299V188.49C267.477 190.945 266.501 193.299 264.764 195.035C263.028 196.771 260.675 197.747 258.22 197.75ZM167.1 85.6699C164.911 85.6726 162.812 86.544 161.265 88.0928C159.718 89.6415 158.85 91.741 158.85 93.9299V188.49C158.85 190.679 159.718 192.778 161.265 194.327C162.812 195.876 164.911 196.747 167.1 196.75H258.22C260.409 196.747 262.509 195.876 264.057 194.328C265.606 192.779 266.477 190.68 266.48 188.49V93.9299C266.477 91.74 265.606 89.6406 264.057 88.0921C262.509 86.5437 260.409 85.6726 258.22 85.6699H167.1Z" fill="#455A64"/>
<path d="M237.505 212.175V223.462H235.119V214.44H235.052L232.468 216.061V213.945L235.262 212.175H237.505ZM244.613 223.71C243.665 223.706 242.849 223.473 242.166 223.01C241.486 222.547 240.962 221.877 240.595 220.999C240.231 220.12 240.051 219.064 240.055 217.83C240.055 216.599 240.237 215.55 240.601 214.683C240.968 213.816 241.491 213.156 242.171 212.705C242.855 212.249 243.668 212.021 244.613 212.021C245.557 212.021 246.369 212.249 247.048 212.705C247.732 213.16 248.257 213.821 248.624 214.688C248.992 215.552 249.174 216.599 249.17 217.83C249.17 219.068 248.986 220.126 248.619 221.004C248.255 221.882 247.734 222.553 247.054 223.016C246.374 223.478 245.56 223.71 244.613 223.71ZM244.613 221.731C245.259 221.731 245.775 221.406 246.161 220.756C246.547 220.106 246.738 219.13 246.734 217.83C246.734 216.974 246.646 216.261 246.47 215.691C246.297 215.122 246.051 214.694 245.731 214.407C245.415 214.121 245.042 213.978 244.613 213.978C243.97 213.978 243.455 214.299 243.069 214.942C242.684 215.585 242.489 216.548 242.485 217.83C242.485 218.697 242.572 219.421 242.744 220.001C242.921 220.578 243.169 221.011 243.488 221.302C243.808 221.588 244.183 221.731 244.613 221.731Z" fill="black"/>
<path d="M252.873 212.835C253.109 212.835 253.336 212.874 253.554 212.954C253.774 213.033 253.97 213.159 254.142 213.332C254.315 213.506 254.452 213.736 254.552 214.023C254.654 214.308 254.705 214.659 254.707 215.074C254.707 215.464 254.662 215.812 254.574 216.119C254.488 216.424 254.363 216.683 254.2 216.897C254.037 217.11 253.841 217.273 253.61 217.385C253.38 217.496 253.123 217.551 252.839 217.551C252.533 217.551 252.263 217.492 252.028 217.374C251.793 217.254 251.604 217.092 251.461 216.888C251.319 216.681 251.233 216.45 251.203 216.193H252.16C252.197 216.36 252.276 216.49 252.396 216.583C252.515 216.674 252.663 216.719 252.839 216.719C253.138 216.719 253.365 216.589 253.521 216.329C253.676 216.068 253.755 215.71 253.756 215.256H253.725C253.656 215.39 253.563 215.506 253.447 215.603C253.33 215.699 253.196 215.773 253.046 215.825C252.896 215.877 252.737 215.903 252.568 215.903C252.298 215.903 252.056 215.84 251.844 215.713C251.632 215.586 251.464 215.411 251.342 215.188C251.219 214.966 251.158 214.712 251.158 214.426C251.157 214.118 251.228 213.844 251.371 213.604C251.515 213.363 251.715 213.175 251.972 213.039C252.23 212.901 252.531 212.833 252.873 212.835ZM252.88 213.597C252.729 213.597 252.594 213.633 252.476 213.704C252.36 213.776 252.267 213.873 252.198 213.994C252.131 214.115 252.098 214.25 252.1 214.399C252.1 214.55 252.132 214.686 252.198 214.807C252.265 214.927 252.357 215.023 252.472 215.094C252.588 215.165 252.721 215.2 252.871 215.2C252.983 215.2 253.087 215.179 253.182 215.137C253.278 215.095 253.361 215.037 253.431 214.964C253.503 214.89 253.559 214.804 253.599 214.706C253.64 214.609 253.66 214.506 253.66 214.397C253.658 214.252 253.624 214.119 253.557 213.998C253.489 213.877 253.397 213.78 253.279 213.707C253.161 213.634 253.028 213.597 252.88 213.597ZM257.04 212.835C257.276 212.835 257.503 212.874 257.722 212.954C257.941 213.033 258.137 213.159 258.309 213.332C258.482 213.506 258.619 213.736 258.719 214.023C258.821 214.308 258.872 214.659 258.874 215.074C258.874 215.464 258.83 215.812 258.741 216.119C258.655 216.424 258.53 216.683 258.367 216.897C258.204 217.11 258.008 217.273 257.778 217.385C257.547 217.496 257.29 217.551 257.006 217.551C256.7 217.551 256.43 217.492 256.195 217.374C255.96 217.254 255.771 217.092 255.628 216.888C255.486 216.681 255.4 216.45 255.37 216.193H256.327C256.365 216.36 256.443 216.49 256.563 216.583C256.682 216.674 256.83 216.719 257.006 216.719C257.305 216.719 257.532 216.589 257.688 216.329C257.843 216.068 257.922 215.71 257.923 215.256H257.892C257.823 215.39 257.73 215.506 257.614 215.603C257.497 215.699 257.364 215.773 257.213 215.825C257.063 215.877 256.904 215.903 256.735 215.903C256.465 215.903 256.223 215.84 256.011 215.713C255.799 215.586 255.632 215.411 255.509 215.188C255.387 214.966 255.325 214.712 255.325 214.426C255.324 214.118 255.395 213.844 255.538 213.604C255.682 213.363 255.882 213.175 256.139 213.039C256.397 212.901 256.698 212.833 257.04 212.835ZM257.047 213.597C256.896 213.597 256.761 213.633 256.643 213.704C256.527 213.776 256.434 213.873 256.365 213.994C256.298 214.115 256.265 214.25 256.267 214.399C256.267 214.55 256.3 214.686 256.365 214.807C256.433 214.927 256.524 215.023 256.639 215.094C256.755 215.165 256.888 215.2 257.038 215.2C257.15 215.2 257.254 215.179 257.349 215.137C257.445 215.095 257.528 215.037 257.598 214.964C257.67 214.89 257.726 214.804 257.766 214.706C257.807 214.609 257.827 214.506 257.827 214.397C257.825 214.252 257.791 214.119 257.724 213.998C257.657 213.877 257.564 213.78 257.446 213.707C257.328 213.634 257.195 213.597 257.047 213.597Z" fill="#263238"/>
<path d="M258.6 219.391H250.84V220.371H258.6V219.391Z" fill="#263238"/>
<path d="M204.91 216.301H164.86V217.541H204.91V216.301Z" fill="#263238"/>
<path d="M189.17 220.271H164.86V221.511H189.17V220.271Z" fill="#263238"/>
<path d="M251 278.27L171 277.9C170.17 277.9 169.51 276.99 169.51 275.9L169.6 254.96C169.6 253.85 170.28 252.96 171.11 252.96L251.17 253.33C252 253.33 252.67 254.23 252.66 255.33L252.58 276.28C252.53 277.38 251.85 278.27 251 278.27Z" fill="#FF725E"/>
<g opacity="0.5">
<path d="M251 278.27L171 277.9C170.17 277.9 169.51 276.99 169.51 275.9L169.6 254.96C169.6 253.85 170.28 252.96 171.11 252.96L251.17 253.33C252 253.33 252.67 254.23 252.66 255.33L252.58 276.28C252.53 277.38 251.85 278.27 251 278.27Z" fill="#36AAC4"/>
</g>
<path d="M251 271.56L171 271.19C170.17 271.19 169.51 270.28 169.51 269.19L169.6 248.25C169.6 247.14 170.28 246.25 171.11 246.25L251.17 246.62C251.627 246.699 252.037 246.95 252.314 247.322C252.592 247.695 252.715 248.159 252.66 248.62L252.58 269.57C252.53 270.66 251.85 271.56 251 271.56Z" fill="#36AAC4"/>
<path d="M229.51 159.27C229.276 159.314 229.038 159.331 228.8 159.32L226.8 159.37L219.3 159.45L194.14 159.53H193.92V159.31C193.73 157.98 193.53 156.57 193.33 155.14C191.62 142.91 190.14 131.99 189.21 124.92L189.37 125.07L182.67 124.99H180.89C180.684 125.012 180.476 125.012 180.27 124.99C180.476 124.973 180.684 124.973 180.89 124.99L182.67 124.94L189.37 124.87H189.51V125.02C190.51 132.07 192.12 143.02 193.83 155.21C194.03 156.64 194.22 158.05 194.41 159.38L194.15 159.15L219.31 159.24L226.81 159.32H228.81C229.042 159.289 229.276 159.273 229.51 159.27Z" fill="white"/>
<path d="M193.1 151.94H193.8H195.8L203.37 151.87L229.49 151.77L229.24 151.98C230.01 147.59 230.85 142.83 231.72 137.91C232.16 135.38 232.6 132.91 233.02 130.53L233.28 130.83L202.5 130.74L193.39 130.67L190.93 130.62H193.39L202.5 130.54L233.28 130.46H233.58L233.53 130.76C233.11 133.13 232.67 135.61 232.23 138.14C231.36 143.06 230.51 147.81 229.73 152.21V152.41H229.52L203.4 152.32L195.83 152.25H193.83C193.576 152.172 193.331 152.068 193.1 151.94Z" fill="white"/>
<path d="M203 168.88C202.95 168.88 202.95 168.56 202.79 168.04C202.566 167.306 202.11 166.663 201.49 166.21C200.996 165.843 200.41 165.621 199.797 165.568C199.184 165.514 198.568 165.633 198.018 165.909C197.469 166.185 197.007 166.609 196.684 167.133C196.361 167.657 196.19 168.26 196.19 168.875C196.19 169.49 196.361 170.094 196.684 170.617C197.007 171.141 197.469 171.565 198.018 171.841C198.568 172.118 199.184 172.236 199.797 172.183C200.41 172.13 200.996 171.907 201.49 171.54C202.108 171.09 202.564 170.451 202.79 169.72C202.95 169.19 202.95 168.88 203 168.88C203.074 169.172 203.074 169.478 203 169.77C202.831 170.59 202.378 171.323 201.72 171.84C201.228 172.23 200.645 172.488 200.026 172.592C199.407 172.695 198.771 172.639 198.18 172.43C197.448 172.168 196.814 171.687 196.367 171.051C195.919 170.416 195.679 169.658 195.679 168.88C195.679 168.103 195.919 167.344 196.367 166.709C196.814 166.073 197.448 165.592 198.18 165.33C198.771 165.121 199.407 165.065 200.026 165.169C200.645 165.272 201.228 165.53 201.72 165.92C202.38 166.44 202.833 167.177 203 168C203.072 168.289 203.072 168.591 203 168.88Z" fill="white"/>
<path d="M225.74 168.88C225.69 168.88 225.69 168.56 225.53 168.04C225.309 167.304 224.852 166.661 224.23 166.21C223.736 165.843 223.15 165.621 222.537 165.568C221.924 165.514 221.308 165.633 220.759 165.909C220.209 166.185 219.747 166.609 219.424 167.133C219.101 167.657 218.93 168.26 218.93 168.875C218.93 169.49 219.101 170.094 219.424 170.617C219.747 171.141 220.209 171.565 220.759 171.841C221.308 172.118 221.924 172.236 222.537 172.183C223.15 172.13 223.736 171.907 224.23 171.54C224.852 171.093 225.309 170.453 225.53 169.72C225.69 169.19 225.69 168.88 225.74 168.88C225.814 169.172 225.814 169.478 225.74 169.77C225.571 170.59 225.118 171.323 224.46 171.84C223.968 172.23 223.385 172.488 222.766 172.592C222.147 172.695 221.512 172.639 220.92 172.43C220.188 172.168 219.555 171.687 219.107 171.051C218.659 170.416 218.419 169.658 218.419 168.88C218.419 168.103 218.659 167.344 219.107 166.709C219.555 166.073 220.188 165.592 220.92 165.33C221.512 165.121 222.147 165.065 222.766 165.169C223.385 165.272 223.968 165.53 224.46 165.92C225.118 166.437 225.571 167.171 225.74 167.99C225.814 168.282 225.814 168.588 225.74 168.88Z" fill="white"/>
<path d="M231.36 137.011C236.938 137.011 241.46 132.489 241.46 126.911C241.46 121.332 236.938 116.811 231.36 116.811C225.782 116.811 221.26 121.332 221.26 126.911C221.26 132.489 225.782 137.011 231.36 137.011Z" fill="#36AAC4"/>
<path d="M236.42 124.261C234.981 126.149 233.41 127.934 231.72 129.601L230.27 131.111L230.11 131.291L229.93 131.131C228.623 130.079 227.412 128.915 226.31 127.651C227.707 128.58 229.028 129.62 230.26 130.761H229.91C230.37 130.281 230.85 129.761 231.34 129.231C232.907 127.45 234.605 125.789 236.42 124.261Z" fill="#263238"/>
<path d="M126.84 51C126.71 51.35 123.68 79.11 123.68 79.11L135.39 77L138.39 54.06L126.84 51Z" fill="#455A64"/>
<path d="M123.68 79.0994L122.8 78.5794L125.46 50.6094L126.8 50.9894L123.68 79.0994Z" fill="#263238"/>
<path d="M132.44 55.7997C132.738 55.7997 132.98 55.558 132.98 55.2597C132.98 54.9615 132.738 54.7197 132.44 54.7197C132.142 54.7197 131.9 54.9615 131.9 55.2597C131.9 55.558 132.142 55.7997 132.44 55.7997Z" fill="#263238"/>
<path d="M116.65 94.0699L139.11 99.9099L135.68 71.9999L135.22 70.7299L127 69.4599L128 63.3799C128.129 62.7111 128.393 62.0757 128.776 61.5126C129.16 60.9496 129.654 60.4708 130.229 60.1056C130.804 59.7404 131.447 59.4965 132.12 59.389C132.792 59.2814 133.48 59.3123 134.14 59.4799L136.84 60.1999C137.792 60.4503 138.68 60.8986 139.447 61.5154C140.213 62.1323 140.842 62.9039 141.29 63.7799C142.85 66.8399 144.38 70.1799 144.23 69.8899L156.28 102.57C157.33 104.666 157.761 107.017 157.524 109.35C157.286 111.682 156.39 113.898 154.94 115.74C151.06 120.74 141.69 117.27 137.27 116.42L108.5 110.08L116.65 94.0699Z" fill="#C67761"/>
<path d="M31.3799 142.55C28.9379 139.738 27.599 136.136 27.6119 132.412C27.6248 128.688 28.9885 125.095 31.4499 122.3L55.9999 94.4502L62.5699 112.83C62.1199 113.13 43.4499 133.14 43.4499 133.14L59.4499 153.14C60.6652 154.655 61.4769 156.452 61.8091 158.365C62.1414 160.279 61.9834 162.245 61.3499 164.08L60.6299 167.03C60.3825 168.037 59.9166 168.978 59.2652 169.785C58.6138 170.592 57.7928 171.246 56.8604 171.7C55.9281 172.154 54.9072 172.398 53.8702 172.413C52.8332 172.429 51.8055 172.216 50.8599 171.79L46.3499 169.79C46.2292 169.728 46.1224 169.643 46.0359 169.538C45.9494 169.434 45.8851 169.313 45.8467 169.183C45.8084 169.053 45.7969 168.917 45.8129 168.782C45.8289 168.647 45.8721 168.518 45.9399 168.4C46.0248 168.265 46.1429 168.154 46.2829 168.077C46.4228 168 46.5801 167.96 46.7399 167.96H52.8499C53.4714 167.962 54.0756 167.755 54.5653 167.373C55.055 166.99 55.4018 166.454 55.5499 165.85L31.3799 142.55Z" fill="#C67761"/>
<path d="M40 129.569C40.8085 130.062 41.5341 130.68 42.15 131.399C42.8943 132.006 43.4838 132.78 43.87 133.659C43.0946 133.122 42.3921 132.487 41.78 131.769C41.0451 131.163 40.4397 130.415 40 129.569Z" fill="#9B4E3D"/>
<path d="M45.8501 334.06C45.8501 334.06 71.0601 253.96 71.6001 251.36C72.0801 249.01 62.4501 191.36 61.2301 176.45L95.3101 177.72V178L109.8 178.8L96.8001 342.62H81.1401L82.7001 288.27C73.0301 314.27 59.1701 340.68 59.1701 340.68L45.8501 334.06Z" fill="#C67761"/>
<path d="M82.0601 307.72C82.0601 307.22 82.2501 289.51 82.2501 289.51C82.2501 289.51 89.1701 269.81 89.3101 270.31C89.4501 270.81 82.0601 307.72 82.0601 307.72Z" fill="#9B4E3D"/>
<path d="M69.5698 52.9998C67.7598 50.4998 63.6598 50.6698 61.3498 52.7198C59.0398 54.7698 58.2398 58.0498 58.1498 61.1398C58.0698 64.0098 58.2698 67.4298 55.9598 69.1398C54.9487 69.7053 53.8995 70.1998 52.8198 70.6198C51.9367 71.1214 51.2028 71.8488 50.6932 72.7274C50.1836 73.6059 49.9167 74.6042 49.9198 75.6198C49.9198 77.1398 50.5398 78.8998 49.5298 80.0598C48.9503 80.5646 48.2958 80.9762 47.5898 81.2798C46.7118 81.9065 46.0191 82.7583 45.5844 83.7456C45.1497 84.7329 44.9892 85.819 45.1198 86.8898C45.2098 88.5886 45.6961 90.2427 46.5398 91.7198C46.5398 91.7198 62.7198 91.5598 70.0798 91.7198C70.0798 91.7198 69.9498 65.7798 69.5698 52.9998Z" fill="#263238"/>
<path d="M95.81 86.3296C95.76 84.5096 96.3 77.2696 96.3 77.2696C96.3 77.2696 103.05 76.6096 103.53 69.7596C104.01 62.9096 103.76 47.0996 103.76 47.0996L91.56 40.8096L78 51.1596L79.36 86.3996L95.81 86.3296Z" fill="#C67761"/>
<path d="M102.3 58.6097C102.301 58.723 102.28 58.8355 102.237 58.9404C102.194 59.0454 102.131 59.1407 102.051 59.2208C101.971 59.301 101.875 59.3643 101.77 59.407C101.665 59.4497 101.553 59.4711 101.44 59.4697C101.224 59.4466 101.024 59.3445 100.879 59.1829C100.734 59.0214 100.653 58.8119 100.653 58.5947C100.653 58.3776 100.734 58.168 100.879 58.0065C101.024 57.845 101.224 57.7428 101.44 57.7197C101.555 57.7197 101.669 57.7429 101.776 57.7879C101.882 57.833 101.978 57.8991 102.059 57.9821C102.139 58.0652 102.202 58.1636 102.243 58.2714C102.284 58.3792 102.304 58.4943 102.3 58.6097Z" fill="#263238"/>
<path d="M103.14 57.66C103.03 57.77 102.4 57.2099 101.48 57.1499C100.56 57.0899 99.8699 57.54 99.7699 57.41C99.6699 57.28 99.8399 57.15 100.15 56.94C100.554 56.6715 101.036 56.5449 101.52 56.58C102.005 56.6141 102.466 56.8074 102.83 57.13C103.11 57.39 103.19 57.61 103.14 57.66Z" fill="#263238"/>
<path d="M92.4 58.5001C92.4 58.7309 92.3083 58.9522 92.1451 59.1153C91.982 59.2785 91.7607 59.3701 91.53 59.3701C91.314 59.347 91.1143 59.2449 90.9691 59.0833C90.824 58.9218 90.7437 58.7123 90.7437 58.4951C90.7437 58.2779 90.824 58.0685 90.9691 57.9069C91.1143 57.7454 91.314 57.6432 91.53 57.6201C91.6451 57.6201 91.759 57.6429 91.8652 57.6873C91.9714 57.7316 92.0678 57.7966 92.1487 57.8785C92.2296 57.9603 92.2935 58.0574 92.3366 58.1641C92.3798 58.2708 92.4013 58.385 92.4 58.5001Z" fill="#263238"/>
<path d="M92.9399 57.5499C92.8299 57.6599 92.1999 57.1099 91.2799 57.0499C90.3599 56.9899 89.6599 57.4299 89.5699 57.3099C89.4799 57.1899 89.6399 57.0399 89.9399 56.8299C90.3471 56.5607 90.8336 56.4373 91.3199 56.4799C91.8052 56.5141 92.2657 56.7074 92.6299 57.0299C92.8999 57.2799 92.9999 57.4999 92.9399 57.5499Z" fill="#263238"/>
<path d="M96.1699 65.5701C96.6615 65.4345 97.17 65.3706 97.6799 65.3801C97.9199 65.3801 98.1399 65.38 98.1899 65.16C98.2205 64.9027 98.1754 64.642 98.0599 64.41C97.8699 63.78 97.6699 63.13 97.4499 62.41C96.8798 60.7381 96.432 59.0269 96.1099 57.29C96.8063 58.9118 97.3812 60.5831 97.8299 62.29C98.0299 62.98 98.2299 63.64 98.4099 64.29C98.5505 64.6043 98.5788 64.9574 98.4899 65.29C98.4561 65.3751 98.4019 65.4506 98.3322 65.5098C98.2625 65.5691 98.1793 65.6104 98.0899 65.6301C97.9572 65.6484 97.8226 65.6484 97.6899 65.6301C97.1827 65.6746 96.672 65.6545 96.1699 65.5701Z" fill="#263238"/>
<path d="M96.3 77.2694C93.1143 77.1007 90.0479 76.0021 87.48 74.1094C87.48 74.1094 89.48 79.1694 96.14 78.9494L96.3 77.2694Z" fill="#9B4E3D"/>
<path d="M68.34 57.6098C68.41 57.1198 68.27 58.1398 68.34 57.3798C68.4356 56.449 68.5825 55.5243 68.78 54.6098C72.57 40.3498 84.84 37.8098 87.27 37.8398C89.86 37.8398 97.27 37.6498 101.43 42.8398C103.005 44.6898 104.055 46.9284 104.47 49.3223C104.885 51.7161 104.65 54.1775 103.79 56.4498L93 54.4998C93.8 51.8098 92.7 48.4398 92.07 46.8698L92.01 46.8098C90 57.0498 78.93 57.9998 78.93 57.9998L78.79 74.3598C70.79 73.1998 68.15 63.5498 68.34 57.6098Z" fill="#263238"/>
<path d="M75.71 58.9996C76.0449 58.9846 76.3804 59.0081 76.71 59.0696C77.5815 59.1479 78.4584 59.1479 79.3299 59.0696C80.6152 58.9718 81.8807 58.6958 83.09 58.2496C86.0779 57.1719 88.568 55.0376 90.09 52.2496C90.7233 51.1237 91.1978 49.9156 91.5 48.6596C91.7279 47.4834 91.8848 46.2946 91.97 45.0996C92.0627 45.4245 92.1032 45.762 92.09 46.0996C92.1137 46.9954 92.0366 47.8911 91.8599 48.7696C91.5949 50.0755 91.1401 51.3355 90.51 52.5096C89.4136 54.5418 87.8052 56.2522 85.8441 57.4713C83.8831 58.6903 81.6375 59.3758 79.3299 59.4596C78.4389 59.5017 77.546 59.4379 76.67 59.2696C76.3374 59.2325 76.0131 59.1413 75.71 58.9996Z" fill="#263238"/>
<path d="M79.0498 65.5798C79.1198 64.5798 79.5898 62.0898 79.2498 61.1198C78.9098 60.1498 77.8298 59.9298 76.6398 59.9398C75.9678 59.9644 75.3298 60.2417 74.8534 60.7163C74.3769 61.1909 74.0971 61.8278 74.0698 62.4998C74.0423 63.0811 74.1605 63.66 74.4137 64.184C74.6669 64.7079 75.0472 65.1603 75.5198 65.4998C76.0381 65.7884 76.6148 65.9563 77.207 65.9909C77.7991 66.0256 78.3915 65.926 78.9398 65.6998" fill="#C67761"/>
<path d="M77.7699 64.2297C77.7699 64.1597 77.4299 64.3097 76.9999 64.1597C76.7318 64.0549 76.5025 63.8701 76.3432 63.6303C76.184 63.3905 76.1025 63.1075 76.1099 62.8197C76.0897 62.6746 76.1016 62.5268 76.1448 62.3869C76.188 62.2469 76.2615 62.1181 76.3599 62.0097C76.5533 61.8681 76.791 61.8007 77.0299 61.8197C77.4999 61.8797 77.8199 62.0097 77.8499 61.9297C77.8799 61.8497 77.6499 61.6397 77.0999 61.4697C76.9309 61.424 76.7539 61.4155 76.5812 61.4449C76.4086 61.4742 76.2444 61.5407 76.0999 61.6397C75.9337 61.789 75.8052 61.9756 75.7253 62.1842C75.6453 62.3929 75.616 62.6175 75.6399 62.8397C75.6283 63.2555 75.7549 63.6635 75.9999 63.9997C76.2227 64.2746 76.5401 64.4565 76.8899 64.5097C77.5299 64.5897 77.8199 64.2697 77.7699 64.2297Z" fill="#9B4E3D"/>
<path d="M74.91 65.4101C74.8168 65.7726 74.7731 66.146 74.78 66.5201C74.8162 66.9063 74.9986 67.2641 75.29 67.5201C75.4559 67.6751 75.6542 67.7913 75.8706 67.8602C76.087 67.929 76.316 67.9488 76.541 67.9182C76.766 67.8875 76.9813 67.8072 77.1714 67.683C77.3615 67.5588 77.5216 67.3939 77.64 67.2001C77.8512 66.8825 77.9334 66.4963 77.87 66.1201C77.77 65.4501 77.4 65.1201 77.46 65.1201C77.52 65.1201 77.99 65.2901 78.23 66.1201C78.2964 66.3535 78.3148 66.5979 78.2838 66.8386C78.2529 67.0793 78.1733 67.3112 78.05 67.5201C77.904 67.7859 77.6978 68.0138 77.4479 68.1854C77.1979 68.3571 76.9113 68.4678 76.6108 68.5086C76.3104 68.5495 76.0045 68.5193 75.7178 68.4206C75.4311 68.3219 75.1716 68.1573 74.96 67.9401C74.7873 67.7708 74.6504 67.5685 74.5576 67.3451C74.4649 67.1217 74.418 66.882 74.42 66.6401C74.43 65.7101 74.88 65.3601 74.91 65.4101Z" fill="#455A64"/>
<path d="M69.9997 61.7198C69.5952 61.4005 69.2728 60.9891 69.0597 60.5198C68.4674 59.4346 68.113 58.2357 68.0199 57.0029C67.9267 55.7701 68.0972 54.5316 68.5197 53.3698C68.6594 52.8734 68.9206 52.4198 69.2797 52.0498C68.7414 53.6292 68.4874 55.2917 68.5297 56.9598C68.7397 58.6198 69.2371 60.2305 69.9997 61.7198Z" fill="#455A64"/>
<path d="M42.75 88.8601C42.646 88.719 42.5555 88.5684 42.48 88.4101C42.2786 87.9517 42.1439 87.4668 42.08 86.9701C41.9911 86.174 42.0625 85.3682 42.29 84.6001C42.5979 83.5869 43.1916 82.6841 44 82.0001C44.9 81.2001 46.2 80.8501 47 79.8901C47.4002 79.3786 47.5994 78.7384 47.56 78.0901C47.5045 77.3613 47.4043 76.6366 47.26 75.9201C47.1042 75.1216 47.1281 74.2983 47.33 73.5101C47.588 72.6959 48.0372 71.9552 48.64 71.3501C49.9095 70.1743 51.349 69.1966 52.91 68.4501C54.4157 67.7417 55.666 66.5858 56.49 65.1401C56.9824 63.6632 57.1662 62.101 57.03 60.5501C57.0038 59.1734 57.256 57.8056 57.7715 56.5289C58.287 55.2521 59.0553 54.0926 60.03 53.1201C61.3906 51.8558 63.1729 51.1429 65.03 51.1201C65.5298 51.1249 66.027 51.1921 66.51 51.3201C66.6827 51.356 66.8483 51.4202 67 51.5101C66.3414 51.3809 65.6711 51.3206 65 51.3301C63.2089 51.4198 61.5109 52.1551 60.22 53.4001C59.3058 54.3506 58.5887 55.4726 58.1098 56.7014C57.631 57.9303 57.4 59.2416 57.43 60.5601C57.5785 62.1816 57.3878 63.8163 56.87 65.3601C56.0106 66.9083 54.6891 68.1494 53.09 68.9101C51.5735 69.6343 50.1718 70.5778 48.93 71.7101C48.3752 72.2313 47.9662 72.8884 47.7434 73.6163C47.5207 74.3442 47.4919 75.1177 47.66 75.8601C47.8031 76.5964 47.8967 77.3414 47.94 78.0901C47.9734 78.8477 47.7279 79.5913 47.25 80.1801C46.25 81.2601 44.94 81.5601 44.11 82.2901C43.3361 82.9333 42.7605 83.7829 42.45 84.7401C42.2099 85.468 42.1115 86.2352 42.16 87.0001C42.2842 87.6408 42.4822 88.265 42.75 88.8601Z" fill="#263238"/>
<path d="M93.4199 66.1302C93.6512 66.0339 93.8993 65.9844 94.1499 65.9844C94.4004 65.9844 94.6485 66.0339 94.8799 66.1302C95.109 66.2332 95.3082 66.3927 95.4587 66.5939C95.6092 66.7951 95.7059 67.0313 95.7399 67.2802C95.7672 67.5303 95.7165 67.7828 95.5948 68.003C95.473 68.2232 95.2862 68.4003 95.0599 68.5102C94.832 68.5952 94.5873 68.625 94.3457 68.5972C94.1041 68.5694 93.8725 68.4847 93.6699 68.3502C93.4703 68.2494 93.2937 68.1085 93.1509 67.9365C93.0081 67.7645 92.9022 67.5649 92.8399 67.3502C92.7939 67.1241 92.8275 66.8891 92.9351 66.685C93.0426 66.4808 93.2174 66.3202 93.4299 66.2302" fill="#9B4E3D"/>
<path d="M92.7601 64.8496C92.9101 64.8496 93.2101 66.0896 94.4001 66.9696C95.1709 67.4418 96.0162 67.7799 96.9001 67.9696C96.9001 68.0396 96.5901 68.1496 96.0501 68.1296C95.3278 68.0963 94.6317 67.8491 94.0501 67.4196C93.4798 66.9944 93.0484 66.4098 92.8101 65.7396C92.6801 65.1996 92.7001 64.8596 92.7601 64.8496Z" fill="#263238"/>
<path d="M63.9998 87.91C60.1098 88.91 57.9299 90.11 52.1299 96.4L36.5898 113.85L57.9398 129.38L66.6798 117.51L68.5398 143.51C68.5398 143.51 63.6999 149.45 59.4099 165.98C55.9399 179.35 55.6199 192.98 54.6299 203.35L51.9998 268.64L112.8 270.3C112.8 270.3 110.52 250.97 111.61 209.78C112.23 186.36 108.44 162.94 106.39 156.46L103.26 139.51C103.245 136.395 104.172 133.349 105.92 130.77C110.85 123.83 107.34 115.63 107.34 115.63L123.57 121.63L134.28 97.47L112.13 89.12C104.13 85.81 94.5999 86.29 94.5999 86.29L77.7298 86.09C77.7298 86.09 69.8098 85.48 64.0098 87.9" fill="#36AAC4"/>
<path d="M97.1201 343.4V341.92L81.0601 341.22V347.3L82.0601 347.37C86.4701 347.62 104.49 348.37 107.45 347.48C110.69 346.5 97.1201 343.4 97.1201 343.4Z" fill="#FF725E"/>
<g opacity="0.5">
<path d="M86.8101 347.19C86.5909 345.844 85.8778 344.628 84.8101 343.78C83.7594 342.931 82.4276 342.51 81.0801 342.6V347.07L86.8101 347.19Z" fill="white"/>
</g>
<g opacity="0.5">
<path d="M103.75 345.149C103.75 345.149 108.5 346.529 107.91 347.319C107.32 348.109 89.06 348.029 81.02 347.319V346.959L102.3 347.219C102.3 347.219 102.82 345.179 103.75 345.149Z" fill="white"/>
</g>
<path d="M80.79 346.93H81.07L81.86 346.98L84.76 347.12C87.21 347.21 90.61 347.3 94.35 347.32C98.09 347.34 101.49 347.32 103.94 347.2L106.85 347.09H107.64H107.91H106.85H103.94C101.49 347.14 98.1 347.17 94.35 347.16C90.6 347.15 87.22 347.07 84.77 347.01L81.86 346.94H81.07L80.79 346.93Z" fill="#263238"/>
<path d="M102.32 347.45C102.452 346.968 102.636 346.502 102.87 346.06C103.164 345.66 103.499 345.291 103.87 344.96C103.375 345.142 102.963 345.497 102.71 345.96C102.399 346.391 102.26 346.922 102.32 347.45Z" fill="#263238"/>
<path d="M97.6099 345C97.6599 345 97.8899 344.75 98.1199 344.39C98.3499 344.03 98.5099 343.7 98.4599 343.67C98.4099 343.64 98.1899 343.92 97.9599 344.28C97.7894 344.49 97.6697 344.736 97.6099 345Z" fill="#263238"/>
<path d="M96.32 344.35C96.32 344.35 96.61 344.22 96.89 343.98C97.17 343.74 97.36 343.5 97.32 343.46C97.28 343.42 97.04 343.59 96.76 343.83C96.48 344.07 96.29 344.31 96.32 344.35Z" fill="#263238"/>
<path d="M95.5098 342.84C95.7756 342.934 96.0584 342.972 96.3398 342.95C96.8098 342.95 97.1797 342.95 97.1797 342.86C96.9139 342.765 96.6311 342.727 96.3498 342.75C96.0665 342.719 95.7802 342.75 95.5098 342.84Z" fill="#263238"/>
<path d="M95.23 341.77C95.5038 341.956 95.8285 342.054 96.16 342.05C96.4987 342.112 96.8486 342.067 97.16 341.92C96.8488 341.874 96.5344 341.854 96.22 341.86C95.893 341.802 95.5619 341.772 95.23 341.77Z" fill="#263238"/>
<path d="M98.1597 343.649C98.4907 343.705 98.8287 343.705 99.1597 343.649C99.5296 343.608 99.8946 343.531 100.25 343.419C100.468 343.355 100.679 343.268 100.88 343.159C101.001 343.086 101.093 342.973 101.14 342.839C101.155 342.763 101.148 342.684 101.119 342.611C101.091 342.539 101.043 342.476 100.98 342.429C100.588 342.236 100.141 342.185 99.7158 342.286C99.2906 342.386 98.9136 342.631 98.6497 342.979C98.4926 343.181 98.377 343.413 98.3097 343.659C98.3097 343.829 98.3097 343.929 98.3097 343.939C98.4096 343.619 98.5691 343.321 98.7797 343.059C99.0101 342.789 99.3167 342.593 99.6597 342.499C99.858 342.431 100.068 342.402 100.278 342.416C100.487 342.43 100.692 342.485 100.88 342.579C101.04 342.699 100.98 342.899 100.8 342.999C100.616 343.103 100.421 343.187 100.22 343.249C99.8741 343.367 99.5196 343.458 99.1597 343.519C98.5497 343.619 98.1597 343.619 98.1597 343.649Z" fill="#263238"/>
<path d="M98.4297 343.7C98.549 343.484 98.5913 343.233 98.5497 342.99C98.5159 342.722 98.42 342.465 98.2697 342.24C98.1871 342.085 98.0651 341.954 97.9158 341.861C97.7666 341.768 97.5955 341.716 97.4197 341.71C97.3677 341.72 97.3181 341.739 97.2738 341.768C97.2295 341.797 97.1914 341.834 97.1616 341.878C97.1319 341.922 97.1111 341.971 97.1005 342.023C97.0898 342.075 97.0896 342.128 97.0997 342.18C97.1238 342.343 97.1817 342.5 97.2697 342.64C97.4022 342.869 97.5673 343.078 97.7597 343.26C97.9149 343.446 98.1143 343.591 98.3397 343.68C98.3397 343.68 98.1397 343.5 97.8597 343.17C97.6923 342.981 97.548 342.773 97.4297 342.55C97.2897 342.34 97.1897 341.95 97.4297 341.9C97.6697 341.85 97.9497 342.13 98.1097 342.34C98.2513 342.54 98.347 342.769 98.3897 343.01C98.4206 343.239 98.4339 343.469 98.4297 343.7Z" fill="#263238"/>
<path d="M81.1396 342.56C81.1396 342.56 81.5896 342.56 82.3196 342.61C83.2594 342.719 84.1496 343.09 84.8896 343.68C85.6234 344.277 86.1772 345.066 86.4896 345.96C86.7296 346.64 86.7496 347.1 86.7896 347.1C86.8088 346.994 86.8088 346.885 86.7896 346.78C86.763 346.485 86.706 346.193 86.6196 345.91C86.3343 344.971 85.7721 344.14 85.0066 343.526C84.2411 342.912 83.308 342.544 82.3296 342.47C82.0372 342.437 81.7421 342.437 81.4496 342.47C81.3421 342.483 81.2374 342.513 81.1396 342.56Z" fill="#263238"/>
<path d="M88.8301 345.66C89.5944 345.831 90.3773 345.905 91.1601 345.88C91.9455 345.916 92.7322 345.849 93.5001 345.68C93.5001 345.63 92.4501 345.68 91.1601 345.68C89.8701 345.68 88.8301 345.6 88.8301 345.66Z" fill="#263238"/>
<path d="M85.6997 345.62C85.6997 345.62 85.7797 345.85 85.8897 346.09C85.9997 346.33 86.0497 346.54 86.1097 346.53C86.1697 346.52 86.1897 346.28 86.0597 346.01C85.9297 345.74 85.7297 345.59 85.6997 345.62Z" fill="#263238"/>
<path d="M84.52 344.15C84.52 344.15 84.59 344.35 84.75 344.52C84.91 344.69 85.08 344.8 85.12 344.76C85.16 344.72 85.05 344.56 84.89 344.39C84.73 344.22 84.56 344.11 84.52 344.15Z" fill="#263238"/>
<path d="M82.84 343.47C82.84 343.53 83.06 343.53 83.29 343.61C83.52 343.69 83.7 343.82 83.74 343.78C83.78 343.74 83.65 343.53 83.36 343.43C83.07 343.33 82.82 343.42 82.84 343.47Z" fill="#263238"/>
<path d="M81.6299 343.15C81.6299 343.2 81.7099 343.28 81.8399 343.34C81.9699 343.4 82.0899 343.39 82.1099 343.34C82.1299 343.29 82.0399 343.21 81.9099 343.16C81.7799 343.11 81.6499 343.1 81.6299 343.15Z" fill="#263238"/>
<path d="M59.4897 341.999L60.0897 340.659L45.7297 333.439L43.1997 338.959L44.0797 339.429C47.9897 341.429 64.0797 349.539 67.1897 349.939C70.5897 350.359 59.4897 341.999 59.4897 341.999Z" fill="#FF725E"/>
<g opacity="0.5">
<path d="M48.5301 341.22C48.8829 339.877 48.7225 338.451 48.0801 337.22C47.4644 336.018 46.418 335.093 45.1501 334.63L43.3101 338.69L48.5301 341.22Z" fill="white"/>
</g>
<g opacity="0.5">
<path d="M64.8197 346.29C64.8197 346.29 68.5897 349.5 67.7197 349.97C66.8497 350.44 50.2397 342.91 43.1997 338.97L43.3697 338.66L62.6797 347.61C62.6797 347.61 63.9997 345.94 64.8197 346.29Z" fill="white"/>
</g>
<path d="M43.1499 338.52L43.3799 338.66L44.0799 339.03L46.6799 340.34C48.8699 341.43 51.9299 342.9 55.3399 344.45C58.7499 346 61.8699 347.34 64.1399 348.27L66.8399 349.36L67.5699 349.65C67.6557 349.689 67.7466 349.716 67.8399 349.73L67.5899 349.61L66.8599 349.29L64.1899 348.15C61.9399 347.15 58.8299 345.83 55.4199 344.28C52.0099 342.73 48.9499 341.28 46.7399 340.22L44.1199 339L43.3999 338.66L43.1499 338.52Z" fill="#263238"/>
<path d="M62.5698 347.809C62.8882 347.437 63.2471 347.102 63.6398 346.809C64.0694 346.557 64.5255 346.352 64.9998 346.199C64.4721 346.171 63.9514 346.331 63.5298 346.649C63.0787 346.906 62.7371 347.318 62.5698 347.809Z" fill="#263238"/>
<path d="M59.2699 343.68C59.2699 343.73 59.6099 343.57 59.9799 343.33C60.3499 343.09 60.6099 342.86 60.5799 342.82C60.5499 342.78 60.2399 342.93 59.8699 343.17C59.4999 343.41 59.2399 343.64 59.2699 343.68Z" fill="#263238"/>
<path d="M58.3697 342.52C58.3697 342.58 58.6897 342.52 59.0397 342.41C59.3897 342.3 59.6597 342.17 59.6497 342.12C59.6397 342.07 59.3297 342.12 58.9797 342.23C58.6297 342.34 58.3497 342.47 58.3697 342.52Z" fill="#263238"/>
<path d="M58.25 340.81C58.25 340.86 58.55 341.06 58.96 341.25C59.2023 341.4 59.4761 341.492 59.76 341.52C59.76 341.52 59.46 341.27 59.05 341.08C58.8077 340.929 58.5339 340.837 58.25 340.81Z" fill="#263238"/>
<path d="M58.4297 339.729C58.6107 340.006 58.8676 340.225 59.1697 340.359C59.4407 340.544 59.7617 340.642 60.0897 340.639C60.0897 340.579 59.7097 340.439 59.2597 340.189C58.9995 340.008 58.7214 339.854 58.4297 339.729Z" fill="#263238"/>
<path d="M60.3401 342.64C60.6232 342.831 60.9382 342.97 61.2701 343.05C61.6281 343.165 61.9965 343.245 62.3701 343.29C62.5963 343.311 62.8239 343.311 63.0501 343.29C63.1903 343.276 63.3195 343.208 63.4101 343.1C63.451 343.036 63.4728 342.961 63.4728 342.885C63.4728 342.809 63.451 342.734 63.4101 342.67C63.1341 342.33 62.7477 342.098 62.3184 342.014C61.889 341.93 61.4437 341.999 61.0601 342.21C60.8315 342.326 60.6303 342.49 60.4701 342.69C60.4053 342.758 60.3573 342.84 60.3301 342.93C60.5575 342.686 60.8247 342.484 61.1201 342.33C61.4323 342.185 61.7784 342.13 62.1201 342.17C62.3298 342.189 62.5335 342.25 62.719 342.35C62.9046 342.45 63.0682 342.586 63.2001 342.75C63.3001 342.93 63.2001 343.08 62.9501 343.1C62.7439 343.12 62.5363 343.12 62.3301 343.1C61.9656 343.065 61.6044 343.002 61.2501 342.91C60.7101 342.77 60.3501 342.61 60.3401 342.64Z" fill="#263238"/>
<path d="M60.5597 342.79C60.5597 342.79 60.8098 342.63 60.9598 342.19C61.0275 341.928 61.0275 341.652 60.9598 341.39C60.9476 341.215 60.8894 341.046 60.7911 340.9C60.6928 340.754 60.5578 340.637 60.3997 340.56C60.1697 340.49 59.6397 340.95 59.5997 341.13C59.5597 341.31 59.8697 341.21 59.8897 341.35C59.9155 341.613 59.976 341.872 60.0698 342.12C60.1368 342.355 60.2643 342.569 60.4397 342.74C60.4397 342.74 60.3197 342.49 60.1997 342.08C60.1322 341.838 60.0854 341.59 60.0597 341.34C60.0597 341.08 60.0597 340.69 60.3497 340.75C60.6397 340.81 60.7297 341.18 60.7897 341.43C60.8405 341.667 60.8405 341.913 60.7897 342.15C60.7335 342.37 60.6565 342.584 60.5597 342.79Z" fill="#263238"/>
<path d="M45.25 334.67C45.25 334.67 45.68 334.82 46.31 335.19C47.1144 335.67 47.7716 336.362 48.21 337.19C48.6413 338.031 48.8251 338.978 48.74 339.92C48.68 340.65 48.51 341.08 48.55 341.09C48.6077 340.997 48.6514 340.896 48.68 340.79C48.7767 340.514 48.8437 340.23 48.88 339.94C48.999 338.966 48.8285 337.978 48.39 337.1C47.945 336.228 47.2482 335.51 46.39 335.04C46.1358 334.896 45.8678 334.779 45.59 334.69C45.4781 334.668 45.3637 334.661 45.25 334.67Z" fill="#263238"/>
<path d="M51 340.65C51.614 341.121 52.2862 341.511 53 341.81C53.6985 342.165 54.4419 342.424 55.21 342.58C55.21 342.53 54.21 342.16 53.08 341.63C51.95 341.1 51 340.6 51 340.65Z" fill="#263238"/>
<path d="M48.1497 339.329C48.0997 339.329 48.1497 339.569 48.1497 339.829C48.1497 340.089 48.1497 340.309 48.1497 340.329C48.1497 340.349 48.3297 340.139 48.3297 339.829C48.3297 339.519 48.1997 339.309 48.1497 339.329Z" fill="#263238"/>
<path d="M47.6897 337.51C47.6397 337.51 47.6897 337.72 47.7397 337.94C47.7897 338.16 47.9296 338.33 47.9796 338.31C48.0296 338.29 47.9797 338.1 47.9197 337.87C47.8597 337.64 47.7397 337.49 47.6897 337.51Z" fill="#263238"/>
<path d="M46.4297 336.2C46.4297 336.25 46.6097 336.34 46.7897 336.51C46.9697 336.68 47.0697 336.87 47.1197 336.85C47.1697 336.83 47.1197 336.58 46.9197 336.37C46.7197 336.16 46.4297 336.15 46.4297 336.2Z" fill="#263238"/>
<path d="M45.46 335.41C45.46 335.41 45.46 335.56 45.57 335.67C45.68 335.78 45.78 335.82 45.82 335.78C45.86 335.74 45.82 335.63 45.71 335.53C45.6 335.43 45.5 335.38 45.46 335.41Z" fill="#263238"/>
<path d="M143.38 104.12C142.513 103.549 141.749 102.836 141.12 102.01C140.366 101.298 139.735 100.467 139.25 99.5498C140.112 100.127 140.875 100.839 141.51 101.66C142.266 102.37 142.898 103.201 143.38 104.12Z" fill="#9B4E3D"/>
<path d="M118.82 91.7295C118.612 91.7673 118.401 91.784 118.19 91.7795L116.39 91.8295L109.78 91.9095L87.9401 91.9895L66.1101 91.9095L59.4901 91.8295L57.6901 91.7795C57.4789 91.784 57.2679 91.7673 57.0601 91.7295C57.2692 91.7021 57.481 91.7021 57.6901 91.7295L59.4901 91.6795L66.1101 91.5895L87.9401 91.5195L109.78 91.5895L116.39 91.6795L118.19 91.7295C118.399 91.7021 118.611 91.7021 118.82 91.7295Z" fill="#263238"/>
<path d="M132.46 101.36C132.174 101.381 131.886 101.381 131.6 101.36L129.13 101.41L120.06 101.49L90.1401 101.57L60.2001 101.49L51.1301 101.41L48.6701 101.36C48.3838 101.381 48.0963 101.381 47.8101 101.36C48.0944 101.315 48.3824 101.298 48.6701 101.31L51.1301 101.26L60.2001 101.17L90.1401 101.1L120.06 101.17L129.13 101.26L131.6 101.31C131.888 101.298 132.176 101.315 132.46 101.36Z" fill="#263238"/>
<path d="M125.78 112.889C125.485 112.928 125.187 112.945 124.89 112.939L122.33 112.989L112.92 113.069L81.8697 113.149L50.8097 113.069L41.3997 112.999L38.8397 112.949C38.5422 112.954 38.2448 112.937 37.9497 112.899C38.2457 112.872 38.5437 112.872 38.8397 112.899L41.3997 112.849L50.8097 112.759L81.8697 112.689L112.92 112.759L122.33 112.849L124.89 112.899C125.185 112.868 125.483 112.864 125.78 112.889Z" fill="#263238"/>
<path d="M107.78 124.72C107.25 124.801 106.715 124.835 106.18 124.82L101.82 124.9C98.1396 124.9 93.0596 124.98 87.4496 124.98C81.8396 124.98 76.7496 124.98 73.0796 124.9L68.7196 124.82C68.1844 124.835 67.6489 124.801 67.1196 124.72C67.6489 124.639 68.1844 124.605 68.7196 124.62L73.0796 124.54C76.7496 124.54 81.8396 124.46 87.4496 124.46C93.0596 124.46 98.1396 124.46 101.82 124.54L106.18 124.62C106.715 124.605 107.25 124.639 107.78 124.72Z" fill="#263238"/>
<path d="M103.56 136.3C103.101 136.382 102.635 136.415 102.17 136.4L98.3699 136.48C95.1699 136.53 90.7399 136.56 85.8499 136.56C80.9599 136.56 76.5199 136.56 73.3199 136.48L69.5199 136.4C69.0543 136.415 68.5885 136.382 68.1299 136.3C68.5885 136.218 69.0543 136.185 69.5199 136.2L73.3199 136.12C76.5199 136.07 80.9499 136.04 85.8499 136.04C90.7499 136.04 95.1699 136.04 98.3699 136.12L102.17 136.2C102.635 136.185 103.101 136.218 103.56 136.3Z" fill="#263238"/>
<path d="M105.79 130.829C105.294 130.911 104.792 130.944 104.29 130.929L100.22 131.019C96.78 131.019 92.03 131.089 86.78 131.089C81.53 131.089 76.78 131.089 73.33 131.019L69.26 130.929C68.7613 130.944 68.2623 130.911 67.77 130.829C68.263 130.754 68.7614 130.721 69.26 130.729L73.33 130.649C76.77 130.599 81.53 130.569 86.78 130.569C92.03 130.569 96.78 130.569 100.22 130.649L104.29 130.729C104.792 130.721 105.294 130.754 105.79 130.829Z" fill="#263238"/>
<path d="M108.24 119C107.7 119.075 107.155 119.109 106.61 119.1L102.17 119.18C98.41 119.23 93.23 119.26 87.51 119.26C81.79 119.26 76.59 119.26 72.84 119.18L68.4 119.1C67.8549 119.109 67.31 119.075 66.77 119C67.3093 118.919 67.8548 118.885 68.4 118.9L72.84 118.81C76.59 118.81 81.78 118.74 87.51 118.74C93.24 118.74 98.41 118.74 102.17 118.81L106.61 118.9C107.155 118.885 107.701 118.919 108.24 119Z" fill="#263238"/>
<path d="M65.5998 118.94C64.5307 119.096 63.4499 119.16 62.3698 119.13C60.3698 119.18 57.6198 119.2 54.5698 119.2C51.5198 119.2 48.7698 119.2 46.7798 119.13C45.6997 119.16 44.6189 119.096 43.5498 118.94C44.6202 118.796 45.7001 118.736 46.7798 118.76C48.7798 118.76 51.5298 118.68 54.5698 118.68C57.6098 118.68 60.3798 118.68 62.3698 118.76C63.4495 118.736 64.5294 118.796 65.5998 118.94Z" fill="#263238"/>
<path d="M125.09 118.32C121.461 118.666 117.808 118.666 114.18 118.32C117.808 117.973 121.461 117.973 125.09 118.32Z" fill="#263238"/>
<path d="M129.16 106.91C128.868 106.942 128.574 106.959 128.28 106.96H125.76L116.5 107.04L85.94 107.12L55.38 107.04L46.12 106.96H43.6C43.3093 106.958 43.0189 106.942 42.73 106.91C43.0176 106.865 43.3088 106.844 43.6 106.85H46.12L55.38 106.77L85.94 106.7L116.5 106.77L125.76 106.85H128.28C128.575 106.844 128.869 106.864 129.16 106.91Z" fill="#263238"/>
<path d="M130.83 96.1494C130.564 96.1706 130.296 96.1706 130.03 96.1494L127.74 96.1994L119.31 96.2794L91.5099 96.3595L63.6999 96.2794L55.2799 96.1994L52.9799 96.1494C52.717 96.171 52.4528 96.171 52.1899 96.1494C52.4507 96.1047 52.7156 96.0879 52.9799 96.0995H55.2799L63.6999 96.0094L91.5099 95.9395L119.31 96.0094L127.74 96.0995H130.03C130.298 96.0884 130.566 96.1051 130.83 96.1494Z" fill="#263238"/>
<path d="M200.74 264V257H201.58L205.31 262.61V257H206.15V264H205.31L201.58 258.39V264H200.74ZM207.635 264V257H209.935C210.481 257 210.931 257.09 211.285 257.27C211.638 257.45 211.898 257.693 212.065 258C212.238 258.307 212.325 258.653 212.325 259.04C212.325 259.42 212.241 259.763 212.075 260.07C211.908 260.377 211.648 260.623 211.295 260.81C210.941 260.99 210.488 261.08 209.935 261.08H208.475V264H207.635ZM208.475 260.37H209.915C210.475 260.37 210.871 260.253 211.105 260.02C211.345 259.78 211.465 259.453 211.465 259.04C211.465 258.62 211.345 258.293 211.105 258.06C210.871 257.82 210.475 257.7 209.915 257.7H208.475V260.37ZM212.107 264L214.687 257H215.577L218.147 264H217.257L216.617 262.2H213.637L212.987 264H212.107ZM213.887 261.52H216.367L215.127 258.06L213.887 261.52ZM220.195 264V261.34L217.915 257H218.865L220.615 260.54L222.365 257H223.305L221.035 261.34V264H220.195Z" fill="white"/>
<path d="M395.476 127.995L396.092 121.022L396.929 121.096L400.15 127.013L400.644 121.425L401.481 121.499L400.865 128.471L400.028 128.398L396.806 122.481L396.312 128.069L395.476 127.995ZM402.343 128.602L402.96 121.629L405.251 121.832C405.795 121.88 406.236 122.009 406.572 122.22C406.908 122.43 407.146 122.695 407.285 123.016C407.43 123.336 407.486 123.689 407.452 124.074C407.418 124.453 407.305 124.788 407.112 125.078C406.919 125.369 406.638 125.592 406.27 125.747C405.902 125.895 405.443 125.945 404.892 125.896L403.437 125.768L403.18 128.676L402.343 128.602ZM403.5 125.06L404.934 125.187C405.492 125.236 405.897 125.155 406.15 124.943C406.411 124.725 406.559 124.41 406.595 123.999C406.632 123.58 406.542 123.244 406.323 122.991C406.112 122.731 405.727 122.577 405.169 122.527L403.735 122.401L403.5 125.06ZM406.798 128.996L409.985 122.25L410.871 122.329L412.815 129.528L411.928 129.45L411.449 127.6L408.481 127.338L407.675 129.074L406.798 128.996ZM408.79 126.682L411.26 126.901L410.329 123.345L408.79 126.682ZM414.855 129.708L415.089 127.059L413.2 122.535L414.147 122.618L415.578 126.299L417.633 122.927L418.569 123.009L415.926 127.133L415.692 129.782L414.855 129.708Z" fill="white"/>
</svg>
